# Exported from Wings 3D 1.5.3
mtllib Tube.mtl
o Tube2
#32 vertices, 64 faces
v 0.50000000 3.0616170e-17 0.50000000
v 0.50000000 -0.50000000 0.50000000
v 3.0616170e-17 -0.50000000 0.50000000
v -0.50000000 -0.50000000 0.50000000
v -0.50000000 -3.0616170e-17 0.50000000
v -0.50000000 0.50000000 0.50000000
v -9.1848510e-17 0.50000000 0.50000000
v 0.50000000 0.50000000 0.50000000
v 0.50000000 -3.0616170e-17 -0.50000000
v 0.50000000 -0.50000000 -0.50000000
v 3.0616170e-17 -0.50000000 -0.50000000
v -0.50000000 -0.50000000 -0.50000000
v -0.50000000 -9.1848510e-17 -0.50000000
v -0.50000000 0.50000000 -0.50000000
v -9.1848510e-17 0.50000000 -0.50000000
v 0.50000000 0.50000000 -0.50000000
v 0.45500000 3.1657004e-17 0.50000000
v 0.32173359 -0.32173359 0.50000000
v 3.2024051e-17 -0.45500000 0.50000000
v -0.32173359 -0.32173359 0.50000000
v -0.45500000 -2.4064425e-17 0.50000000
v -0.32173359 0.32173359 0.50000000
v -7.9418808e-17 0.45500000 0.50000000
v 0.32173359 0.32173359 0.50000000
v 0.45500000 -2.9575336e-17 -0.50000000
v 0.32173359 -0.32173359 -0.50000000
v 3.2024051e-17 -0.45500000 -0.50000000
v -0.32173359 -0.32173359 -0.50000000
v -0.45500000 -8.5296765e-17 -0.50000000
v -0.32173359 0.32173359 -0.50000000
v -7.9418808e-17 0.45500000 -0.50000000
v 0.32173359 0.32173359 -0.50000000
vt -1.5178830e-17 0.50000000
vt -1.5178830e-17 1.00000000
vt 0.0000000e+0 -2.2204460e-16
vt 0.0000000e+0 0.0000000e+0
vt 0.0000000e+0 5.5248072e-17
vt 0.0000000e+0 1.1102230e-16
vt 0.0000000e+0 1.3864634e-16
vt 0.0000000e+0 6.6613381e-16
vt 0.0000000e+0 1.2212453e-15
vt 0.0000000e+0 1.8873791e-15
vt 0.0000000e+0 0.50000000
vt 0.0000000e+0 1.00000000
vt 0.0000000e+0 1.00000000
vt 0.0000000e+0 1.00000000
vt 5.5774230e-17 0.50000000
vt 5.5774230e-17 1.00000000
vt 6.8087896e-17 -2.3852448e-18
vt 6.8521577e-17 0.50000000
vt 6.8521577e-17 1.00000000
vt 1.1102230e-16 1.8873791e-15
vt 1.1102230e-16 1.00000000
vt 1.3917250e-16 -2.2204460e-16
vt 1.5178830e-16 0.0000000e+0
vt 2.2204460e-16 1.00000000
vt 4.5000000e-2 0.50000000
vt 4.5000000e-2 0.50000000
vt 0.17826641 0.82173359
vt 0.17826641 0.82173359
vt 0.17826641 0.17826641
vt 0.17826641 0.17826641
vt 0.50000000 1.00000000
vt 0.50000000 -2.3852448e-18
vt 0.50000000 5.5248072e-17
vt 0.50000000 1.3864634e-16
vt 0.50000000 4.5000000e-2
vt 0.50000000 0.95500000
vt 0.50000000 0.95500000
vt 0.50000000 1.00000000
vt 0.50000000 0.0000000e+0
vt 0.50000000 4.5000000e-2
vt 0.50000000 1.00000000
vt 0.82173359 0.17826641
vt 0.82173359 0.82173359
vt 0.82173359 0.82173359
vt 0.82173359 0.17826641
vt 0.95500000 0.50000000
vt 0.95500000 0.50000000
vt 1.00000000 0.0000000e+0
vt 1.00000000 1.00000000
vt 1.00000000 1.00000000
vt 1.00000000 0.0000000e+0
vt 1.00000000 2.2204460e-16
vt 1.00000000 0.50000000
vt 1.00000000 1.00000000
vt 1.00000000 -2.2204460e-16
vt 1.00000000 -2.3852448e-18
vt 1.00000000 0.0000000e+0
vt 1.00000000 5.5248072e-17
vt 1.00000000 1.3864634e-16
vt 1.00000000 4.4408921e-16
vt 1.00000000 9.9920072e-16
vt 1.00000000 0.50000000
vt 1.00000000 0.50000000
vt 1.00000000 1.00000000
vt 1.00000000 1.00000000
vt 1.00000000 1.00000000
vt 1.00000000 0.0000000e+0
vt 1.00000000 1.00000000
vn 1.00000000 0.0000000e+0 0.0000000e+0
vn -3.5945340e-17 0.0000000e+0 1.00000000
vn 3.5945340e-17 5.5511151e-17 1.00000000
vn 1.00000000 0.0000000e+0 0.0000000e+0
vn 1.00000000 0.0000000e+0 0.0000000e+0
vn 3.5945340e-17 5.5511151e-17 1.00000000
vn -3.5945340e-17 0.0000000e+0 1.00000000
vn 1.00000000 0.0000000e+0 0.0000000e+0
vn 0.0000000e+0 -1.00000000 1.1102230e-16
vn 0.0000000e+0 0.0000000e+0 1.00000000
vn 0.0000000e+0 0.0000000e+0 1.00000000
vn 0.0000000e+0 0.0000000e+0 1.00000000
vn 0.0000000e+0 0.0000000e+0 1.00000000
vn 0.0000000e+0 -1.00000000 7.4014868e-17
vn 0.0000000e+0 -1.00000000 7.4014868e-17
vn 0.0000000e+0 -1.00000000 7.4014868e-17
vn 0.0000000e+0 0.0000000e+0 1.00000000
vn 0.0000000e+0 0.0000000e+0 1.00000000
vn 0.0000000e+0 -1.00000000 5.5511151e-17
vn 0.0000000e+0 -1.00000000 5.5511151e-17
vn -1.00000000 0.0000000e+0 0.0000000e+0
vn -1.00000000 0.0000000e+0 0.0000000e+0
vn 0.0000000e+0 0.0000000e+0 1.00000000
vn 0.0000000e+0 0.0000000e+0 1.00000000
vn -1.00000000 -3.7007434e-17 0.0000000e+0
vn -1.6908195e-15 0.0000000e+0 1.00000000
vn 1.6908195e-15 5.5511151e-17 1.00000000
vn -1.00000000 -3.7007434e-17 0.0000000e+0
vn -1.00000000 -3.7007434e-17 0.0000000e+0
vn -1.6908195e-15 0.0000000e+0 1.00000000
vn 1.6908195e-15 5.5511151e-17 1.00000000
vn -1.00000000 -1.1102230e-16 0.0000000e+0
vn 0.0000000e+0 1.00000000 0.0000000e+0
vn 0.0000000e+0 1.1102230e-16 1.00000000
vn 0.0000000e+0 3.1139433e-16 1.00000000
vn 2.3963560e-16 1.5569717e-16 1.00000000
vn -2.3963560e-16 1.5569717e-16 1.00000000
vn 0.0000000e+0 1.00000000 -3.7007434e-17
vn 0.0000000e+0 1.00000000 -3.7007434e-17
vn 0.0000000e+0 1.00000000 -3.7007434e-17
vn 2.3963560e-16 1.5569717e-16 1.00000000
vn -2.3963560e-16 1.5569717e-16 1.00000000
vn 0.0000000e+0 1.00000000 -1.1102230e-16
vn 0.0000000e+0 1.00000000 -1.1102230e-16
vn 1.00000000 -5.5511151e-17 0.0000000e+0
vn 1.00000000 -5.5511151e-17 0.0000000e+0
vn 0.0000000e+0 3.1139433e-16 1.00000000
vn 0.0000000e+0 1.1102230e-16 1.00000000
vn 1.00000000 0.0000000e+0 0.0000000e+0
vn 1.00000000 0.0000000e+0 0.0000000e+0
vn 1.00000000 0.0000000e+0 0.0000000e+0
vn 0.0000000e+0 -1.1102230e-16 -1.00000000
vn 0.0000000e+0 0.0000000e+0 -1.00000000
vn 1.00000000 5.5511151e-17 0.0000000e+0
vn 0.0000000e+0 -1.0111380e-16 -1.00000000
vn 0.0000000e+0 -1.7109579e-16 -1.00000000
vn 0.0000000e+0 -1.00000000 5.5511151e-17
vn 0.0000000e+0 -1.00000000 5.5511151e-17
vn 1.00000000 5.5511151e-17 0.0000000e+0
vn 0.0000000e+0 -1.7109579e-16 -1.00000000
vn 0.0000000e+0 -1.0111380e-16 -1.00000000
vn 0.0000000e+0 -1.00000000 3.7007434e-17
vn 0.0000000e+0 -1.00000000 3.7007434e-17
vn 0.0000000e+0 -1.00000000 3.7007434e-17
vn 0.0000000e+0 0.0000000e+0 -1.00000000
vn 0.0000000e+0 0.0000000e+0 -1.00000000
vn 0.0000000e+0 -1.00000000 0.0000000e+0
vn 0.0000000e+0 -1.7109579e-16 -1.00000000
vn 0.0000000e+0 -1.0111380e-16 -1.00000000
vn -1.00000000 0.0000000e+0 0.0000000e+0
vn 0.0000000e+0 -1.7109579e-16 -1.00000000
vn 0.0000000e+0 -1.0111380e-16 -1.00000000
vn -1.00000000 0.0000000e+0 0.0000000e+0
vn -1.00000000 0.0000000e+0 0.0000000e+0
vn -1.00000000 0.0000000e+0 0.0000000e+0
vn 0.0000000e+0 0.0000000e+0 -1.00000000
vn 0.0000000e+0 -1.1102230e-16 -1.00000000
vn -1.00000000 -5.5511151e-17 0.0000000e+0
vn -3.4219157e-16 0.0000000e+0 -1.00000000
vn 0.0000000e+0 0.0000000e+0 -1.00000000
vn -1.00000000 -5.5511151e-17 0.0000000e+0
vn 0.0000000e+0 1.00000000 -5.5511151e-17
vn 0.0000000e+0 1.00000000 -5.5511151e-17
vn -3.4219157e-16 0.0000000e+0 -1.00000000
vn 0.0000000e+0 0.0000000e+0 -1.00000000
vn 0.0000000e+0 1.00000000 -1.1102230e-16
vn 0.0000000e+0 1.00000000 -1.1102230e-16
vn 0.0000000e+0 1.00000000 -1.1102230e-16
vn 0.0000000e+0 0.0000000e+0 -1.00000000
vn 0.0000000e+0 0.0000000e+0 -1.00000000
vn 0.0000000e+0 1.00000000 -2.2204460e-16
vn 0.0000000e+0 0.0000000e+0 -1.00000000
vn 0.0000000e+0 0.0000000e+0 -1.00000000
vn 1.00000000 0.0000000e+0 0.0000000e+0
vn 0.0000000e+0 0.0000000e+0 -1.00000000
vn 0.0000000e+0 0.0000000e+0 -1.00000000
vn -7.1890680e-17 0.0000000e+0 1.00000000
vn 7.1890680e-17 0.0000000e+0 1.00000000
vn -0.92387953 0.38268343 -3.9850997e-17
vn -0.92387953 -0.38268343 3.9850997e-17
vn -0.92387953 0.38268343 -3.9850997e-17
vn -0.38268343 0.92387953 -1.1955299e-16
vn -3.5945340e-17 0.0000000e+0 1.00000000
vn 0.0000000e+0 0.0000000e+0 1.00000000
vn -0.92387953 0.38268343 -3.9850997e-17
vn -0.38268343 0.92387953 -1.1955299e-16
vn -3.5945340e-17 0.0000000e+0 1.00000000
vn 0.0000000e+0 0.0000000e+0 1.00000000
vn 0.0000000e+0 0.0000000e+0 1.00000000
vn 0.0000000e+0 0.0000000e+0 1.00000000
vn 0.38268343 0.92387953 -1.5940399e-16
vn -0.38268343 0.92387953 -7.9701994e-17
vn 0.38268343 0.92387953 -7.9701994e-17
vn 0.92387953 0.38268343 -3.9850997e-17
vn 0.0000000e+0 0.0000000e+0 1.00000000
vn -1.6908195e-15 0.0000000e+0 1.00000000
vn 0.92387953 0.38268343 -3.9850997e-17
vn 0.38268343 0.92387953 -7.9701994e-17
vn 0.0000000e+0 0.0000000e+0 1.00000000
vn -1.6908195e-15 0.0000000e+0 1.00000000
vn -3.3816389e-15 0.0000000e+0 1.00000000
vn 3.3816389e-15 0.0000000e+0 1.00000000
vn 0.92387953 -0.38268343 3.9850997e-17
vn 0.92387953 0.38268343 -3.9850997e-17
vn 0.92387953 -0.38268343 3.9850997e-17
vn 0.38268343 -0.92387953 1.1955299e-16
vn 1.6908195e-15 5.5511151e-17 1.00000000
vn 2.3963560e-16 1.5569717e-16 1.00000000
vn 0.38268343 -0.92387953 1.1955299e-16
vn 0.92387953 -0.38268343 3.9850997e-17
vn 1.6908195e-15 5.5511151e-17 1.00000000
vn 2.3963560e-16 1.5569717e-16 1.00000000
vn 4.7927120e-16 2.1283917e-31 1.00000000
vn -4.7927120e-16 -2.1283917e-31 1.00000000
vn -0.38268343 -0.92387953 7.9701994e-17
vn 0.38268343 -0.92387953 1.5940399e-16
vn -0.38268343 -0.92387953 7.9701994e-17
vn -0.92387953 -0.38268343 3.9850997e-17
vn -2.3963560e-16 1.5569717e-16 1.00000000
vn 3.5945340e-17 5.5511151e-17 1.00000000
vn -0.92387953 -0.38268343 3.9850997e-17
vn -0.38268343 -0.92387953 7.9701994e-17
vn -2.3963560e-16 1.5569717e-16 1.00000000
vn 3.5945340e-17 5.5511151e-17 1.00000000
vn -0.92387953 0.38268343 -3.9850997e-17
vn -0.92387953 -0.38268343 3.9850997e-17
vn 0.0000000e+0 -1.0111380e-16 -1.00000000
vn 0.0000000e+0 0.0000000e+0 -1.00000000
vn -0.92387953 0.38268343 -3.9850997e-17
vn -0.92387953 -0.38268343 3.9850997e-17
vn 0.0000000e+0 -1.0111380e-16 -1.00000000
vn 0.0000000e+0 0.0000000e+0 -1.00000000
vn -0.92387953 0.38268343 -3.9850997e-17
vn -0.38268343 0.92387953 -1.5940399e-16
vn 0.0000000e+0 -9.1205288e-17 -1.00000000
vn 0.0000000e+0 -3.4219157e-16 -1.00000000
vn -0.38268343 0.92387953 -1.1955299e-16
vn 0.38268343 0.92387953 -7.9701994e-17
vn 0.0000000e+0 -1.7109579e-16 -1.00000000
vn 0.0000000e+0 -1.7109579e-16 -1.00000000
vn 0.38268343 0.92387953 -7.9701994e-17
vn 0.0000000e+0 -1.7109579e-16 -1.00000000
vn 0.0000000e+0 -1.7109579e-16 -1.00000000
vn -0.38268343 0.92387953 -1.1955299e-16
vn 0.38268343 0.92387953 0.0000000e+0
vn 0.92387953 0.38268343 -3.9850997e-17
vn 0.0000000e+0 -3.4219157e-16 -1.00000000
vn 0.0000000e+0 -9.1205288e-17 -1.00000000
vn 0.92387953 0.38268343 -3.9850997e-17
vn 0.92387953 -0.38268343 3.9850997e-17
vn 0.0000000e+0 -1.0111380e-16 -1.00000000
vn -3.4219157e-16 0.0000000e+0 -1.00000000
vn 0.92387953 -0.38268343 3.9850997e-17
vn 0.92387953 0.38268343 -3.9850997e-17
vn -3.4219157e-16 0.0000000e+0 -1.00000000
vn 0.0000000e+0 -1.0111380e-16 -1.00000000
vn 0.92387953 -0.38268343 3.9850997e-17
vn 0.38268343 -0.92387953 7.9701994e-17
vn -6.8438315e-16 0.0000000e+0 -1.00000000
vn 0.0000000e+0 0.0000000e+0 -1.00000000
vn 0.38268343 -0.92387953 1.1955299e-16
vn -0.38268343 -0.92387953 7.9701994e-17
vn 0.0000000e+0 0.0000000e+0 -1.00000000
vn 0.0000000e+0 0.0000000e+0 -1.00000000
vn -0.38268343 -0.92387953 7.9701994e-17
vn 0.38268343 -0.92387953 1.1955299e-16
vn 0.0000000e+0 0.0000000e+0 -1.00000000
vn 0.0000000e+0 0.0000000e+0 -1.00000000
vn -0.38268343 -0.92387953 7.9701994e-17
vn -0.92387953 -0.38268343 3.9850997e-17
vn 0.0000000e+0 0.0000000e+0 -1.00000000
vn 0.0000000e+0 0.0000000e+0 -1.00000000
g Tube2_Exterior
usemtl Exterior
s 1
f 1/53/3 24/44/140 17/47/98
f 2/51/11 18/42/108 3/39/18
f 3/39/12 18/42/104 19/40/109
f 4/23/24 20/30/120 5/18/30
f 5/18/26 20/30/116 21/26/121
f 6/19/35 22/28/132 7/31/41
f 7/31/36 22/28/128 23/37/133
f 8/54/48 24/44/144 1/53/6
f 9/1/53 25/25/152 16/2/96
f 12/56/71 27/35/162 11/32/65
f 14/65/80 31/36/183 30/43/180
f 15/41/90 31/36/188 14/65/85
f 16/2/93 25/25/148 32/27/192
f 28/45/167 27/35/160 12/56/68
s 2
f 1/11/5 9/63/51 8/14/46
f 2/3/8 10/55/54 1/11/1
f 5/18/31 22/28/131 6/19/34
f 7/31/42 24/44/143 8/54/47
f 8/14/45 9/63/49 16/66/94
f 9/63/50 1/11/4 10/55/59
f 10/17/56 27/35/159 26/29/156
f 11/32/66 27/35/163 10/17/60
f 12/56/69 29/46/171 28/45/168
f 13/62/77 29/46/176 12/56/72
f 16/2/95 31/36/187 15/41/89
f 21/26/122 22/28/127 5/18/27
f 23/37/134 24/44/139 7/31/37
f 32/27/191 31/36/184 16/2/92
s 3
f 1/53/7 18/42/107 2/51/10
f 3/39/17 20/30/119 4/23/23
f 7/33/40 14/13/83 6/5/33
f 8/58/44 15/38/87 7/33/38
f 10/17/61 25/25/151 9/1/52
f 14/13/82 7/33/39 15/38/88
f 14/65/84 29/46/175 13/62/76
f 16/65/91 15/38/86 8/58/43
f 17/47/97 18/42/103 1/53/2
f 19/40/110 20/30/115 3/39/13
f 26/29/155 25/25/147 10/17/55
f 30/43/179 29/46/172 14/65/79
s 4
f 4/52/22 13/15/75 12/22/70
f 5/53/29 13/15/74 4/52/21
f 6/54/32 14/16/78 5/53/25
f 13/15/73 5/53/28 14/16/81
s 5
f 3/38/16 10/59/58 2/65/9
f 4/13/20 11/34/63 3/38/14
f 10/59/57 3/38/15 11/34/64
f 12/7/67 11/34/62 4/13/19
g Tube2_Interior
usemtl Interior
s 1
f 17/50/99 25/14/149 18/57/105
f 18/57/101 25/14/145 26/8/153
f 21/4/123 29/61/173 22/12/130
f 22/12/125 29/61/170 30/66/177
f 23/49/135 31/24/185 24/60/142
f 24/60/137 31/24/182 32/6/189
s 2
f 19/66/111 27/14/161 20/57/118
f 20/57/113 27/14/158 28/4/165
f 22/68/129 31/20/186 23/48/136
f 24/68/141 25/9/150 17/67/100
f 30/21/178 31/20/181 22/68/126
f 32/21/190 25/9/146 24/68/138
s 3
f 18/64/106 27/10/164 19/57/112
f 20/4/117 29/66/174 21/12/124
f 26/14/154 27/10/157 18/64/102
f 28/61/166 29/66/169 20/4/114
